<mxfile host="app.diagrams.net" agent="Mozilla/5.0 (Windows NT 10.0; Win64; x64) AppleWebKit/537.36 (KHTML, like Gecko) Chrome/133.0.0.0 Safari/537.36" version="26.0.16">
  <diagram name="Page-1" id="u-sXD7QRpJp7U-iQ0juP">
    <mxGraphModel dx="1985" dy="985" grid="1" gridSize="10" guides="1" tooltips="1" connect="1" arrows="1" fold="1" page="1" pageScale="1" pageWidth="850" pageHeight="1100" math="0" shadow="0">
      <root>
        <mxCell id="0" />
        <mxCell id="1" parent="0" />
        <mxCell id="hZAVBjUfhai6lHua68CX-14" value="DOCTOR" style="swimlane;fontStyle=0;childLayout=stackLayout;horizontal=1;startSize=26;horizontalStack=0;resizeParent=1;resizeParentMax=0;resizeLast=0;collapsible=1;marginBottom=0;align=center;fontSize=14;fillStyle=solid;fillColor=#FF54E2;gradientColor=light-dark(#de98f1, #ededed);swimlaneFillColor=#FF99FF;rounded=0;swimlaneLine=1;glass=0;" vertex="1" parent="1">
          <mxGeometry x="80" y="10" width="160" height="206" as="geometry" />
        </mxCell>
        <mxCell id="hZAVBjUfhai6lHua68CX-54" value="DOC_ID(PK)" style="text;strokeColor=#6c8ebf;fillColor=#FFCCFF;spacingLeft=4;spacingRight=4;overflow=hidden;rotatable=0;points=[[0,0.5],[1,0.5]];portConstraint=eastwest;fontSize=12;whiteSpace=wrap;html=1;" vertex="1" parent="hZAVBjUfhai6lHua68CX-14">
          <mxGeometry y="26" width="160" height="30" as="geometry" />
        </mxCell>
        <mxCell id="hZAVBjUfhai6lHua68CX-15" value="DOC_ID(PK)" style="text;strokeColor=#6c8ebf;fillColor=#FFCCFF;spacingLeft=4;spacingRight=4;overflow=hidden;rotatable=0;points=[[0,0.5],[1,0.5]];portConstraint=eastwest;fontSize=12;whiteSpace=wrap;html=1;" vertex="1" parent="hZAVBjUfhai6lHua68CX-14">
          <mxGeometry y="56" width="160" height="30" as="geometry" />
        </mxCell>
        <mxCell id="hZAVBjUfhai6lHua68CX-19" value="DOC_FNAME" style="text;strokeColor=#6c8ebf;fillColor=#FFCCFF;spacingLeft=4;spacingRight=4;overflow=hidden;rotatable=0;points=[[0,0.5],[1,0.5]];portConstraint=eastwest;fontSize=12;whiteSpace=wrap;html=1;" vertex="1" parent="hZAVBjUfhai6lHua68CX-14">
          <mxGeometry y="86" width="160" height="30" as="geometry" />
        </mxCell>
        <mxCell id="hZAVBjUfhai6lHua68CX-18" value="DOC_LNAME" style="text;strokeColor=#6c8ebf;fillColor=#FFCCFF;spacingLeft=4;spacingRight=4;overflow=hidden;rotatable=0;points=[[0,0.5],[1,0.5]];portConstraint=eastwest;fontSize=12;whiteSpace=wrap;html=1;" vertex="1" parent="hZAVBjUfhai6lHua68CX-14">
          <mxGeometry y="116" width="160" height="30" as="geometry" />
        </mxCell>
        <mxCell id="hZAVBjUfhai6lHua68CX-16" value="DOC_SPEC" style="text;strokeColor=#6c8ebf;fillColor=#FFCCFF;spacingLeft=4;spacingRight=4;overflow=hidden;rotatable=0;points=[[0,0.5],[1,0.5]];portConstraint=eastwest;fontSize=12;whiteSpace=wrap;html=1;" vertex="1" parent="hZAVBjUfhai6lHua68CX-14">
          <mxGeometry y="146" width="160" height="30" as="geometry" />
        </mxCell>
        <mxCell id="hZAVBjUfhai6lHua68CX-17" value="DOC_NUM" style="text;strokeColor=#6c8ebf;fillColor=#FFCCFF;spacingLeft=4;spacingRight=4;overflow=hidden;rotatable=0;points=[[0,0.5],[1,0.5]];portConstraint=eastwest;fontSize=12;whiteSpace=wrap;html=1;" vertex="1" parent="hZAVBjUfhai6lHua68CX-14">
          <mxGeometry y="176" width="160" height="30" as="geometry" />
        </mxCell>
        <mxCell id="hZAVBjUfhai6lHua68CX-25" value="APPOINTMENT" style="swimlane;fontStyle=0;childLayout=stackLayout;horizontal=1;startSize=26;horizontalStack=0;resizeParent=1;resizeParentMax=0;resizeLast=0;collapsible=1;marginBottom=0;align=center;fontSize=14;fillStyle=solid;fillColor=#3B69FF;gradientColor=light-dark(#c9dafd, #ededed);swimlaneFillColor=#FF99FF;rounded=0;swimlaneLine=1;glass=0;" vertex="1" parent="1">
          <mxGeometry x="380" y="270" width="160" height="176" as="geometry" />
        </mxCell>
        <mxCell id="hZAVBjUfhai6lHua68CX-26" value="APP_&lt;span style=&quot;background-color: transparent; color: light-dark(rgb(0, 0, 0), rgb(255, 255, 255));&quot;&gt;ID(PK)&lt;/span&gt;" style="text;strokeColor=#6c8ebf;fillColor=#dae8fc;spacingLeft=4;spacingRight=4;overflow=hidden;rotatable=0;points=[[0,0.5],[1,0.5]];portConstraint=eastwest;fontSize=12;whiteSpace=wrap;html=1;" vertex="1" parent="hZAVBjUfhai6lHua68CX-25">
          <mxGeometry y="26" width="160" height="30" as="geometry" />
        </mxCell>
        <mxCell id="hZAVBjUfhai6lHua68CX-27" value="PAT_ID(PK)" style="text;strokeColor=#6c8ebf;fillColor=#dae8fc;spacingLeft=4;spacingRight=4;overflow=hidden;rotatable=0;points=[[0,0.5],[1,0.5]];portConstraint=eastwest;fontSize=12;whiteSpace=wrap;html=1;" vertex="1" parent="hZAVBjUfhai6lHua68CX-25">
          <mxGeometry y="56" width="160" height="30" as="geometry" />
        </mxCell>
        <mxCell id="hZAVBjUfhai6lHua68CX-28" value="APP_TIME" style="text;strokeColor=#6c8ebf;fillColor=#dae8fc;spacingLeft=4;spacingRight=4;overflow=hidden;rotatable=0;points=[[0,0.5],[1,0.5]];portConstraint=eastwest;fontSize=12;whiteSpace=wrap;html=1;" vertex="1" parent="hZAVBjUfhai6lHua68CX-25">
          <mxGeometry y="86" width="160" height="30" as="geometry" />
        </mxCell>
        <mxCell id="hZAVBjUfhai6lHua68CX-29" value="APP_DATE" style="text;strokeColor=#6c8ebf;fillColor=#dae8fc;spacingLeft=4;spacingRight=4;overflow=hidden;rotatable=0;points=[[0,0.5],[1,0.5]];portConstraint=eastwest;fontSize=12;whiteSpace=wrap;html=1;align=left;" vertex="1" parent="hZAVBjUfhai6lHua68CX-25">
          <mxGeometry y="116" width="160" height="30" as="geometry" />
        </mxCell>
        <mxCell id="hZAVBjUfhai6lHua68CX-30" value="DOC_ID(FK)" style="text;strokeColor=#6c8ebf;fillColor=#dae8fc;spacingLeft=4;spacingRight=4;overflow=hidden;rotatable=0;points=[[0,0.5],[1,0.5]];portConstraint=eastwest;fontSize=12;whiteSpace=wrap;html=1;" vertex="1" parent="hZAVBjUfhai6lHua68CX-25">
          <mxGeometry y="146" width="160" height="30" as="geometry" />
        </mxCell>
        <mxCell id="hZAVBjUfhai6lHua68CX-31" value="PATIENT" style="swimlane;fontStyle=0;childLayout=stackLayout;horizontal=1;startSize=26;horizontalStack=0;resizeParent=1;resizeParentMax=0;resizeLast=0;collapsible=1;marginBottom=0;align=center;fontSize=14;fillStyle=solid;fillColor=#FF8000;gradientColor=light-dark(#f3c0aa, #ededed);swimlaneFillColor=#FF99FF;rounded=0;swimlaneLine=1;glass=0;" vertex="1" parent="1">
          <mxGeometry x="80" y="510" width="160" height="176" as="geometry" />
        </mxCell>
        <mxCell id="hZAVBjUfhai6lHua68CX-32" value="PAT_ID(PK)" style="text;strokeColor=#6c8ebf;fillColor=#FFE6CC;spacingLeft=4;spacingRight=4;overflow=hidden;rotatable=0;points=[[0,0.5],[1,0.5]];portConstraint=eastwest;fontSize=12;whiteSpace=wrap;html=1;" vertex="1" parent="hZAVBjUfhai6lHua68CX-31">
          <mxGeometry y="26" width="160" height="30" as="geometry" />
        </mxCell>
        <mxCell id="hZAVBjUfhai6lHua68CX-33" value="PAT_FNAME" style="text;strokeColor=#6c8ebf;fillColor=#FFE6CC;spacingLeft=4;spacingRight=4;overflow=hidden;rotatable=0;points=[[0,0.5],[1,0.5]];portConstraint=eastwest;fontSize=12;whiteSpace=wrap;html=1;" vertex="1" parent="hZAVBjUfhai6lHua68CX-31">
          <mxGeometry y="56" width="160" height="30" as="geometry" />
        </mxCell>
        <mxCell id="hZAVBjUfhai6lHua68CX-34" value="PAT_LNAME" style="text;strokeColor=#6c8ebf;fillColor=#FFE6CC;spacingLeft=4;spacingRight=4;overflow=hidden;rotatable=0;points=[[0,0.5],[1,0.5]];portConstraint=eastwest;fontSize=12;whiteSpace=wrap;html=1;" vertex="1" parent="hZAVBjUfhai6lHua68CX-31">
          <mxGeometry y="86" width="160" height="30" as="geometry" />
        </mxCell>
        <mxCell id="hZAVBjUfhai6lHua68CX-35" value="PAT_DOB" style="text;strokeColor=#6c8ebf;fillColor=#FFE6CC;spacingLeft=4;spacingRight=4;overflow=hidden;rotatable=0;points=[[0,0.5],[1,0.5]];portConstraint=eastwest;fontSize=12;whiteSpace=wrap;html=1;" vertex="1" parent="hZAVBjUfhai6lHua68CX-31">
          <mxGeometry y="116" width="160" height="30" as="geometry" />
        </mxCell>
        <mxCell id="hZAVBjUfhai6lHua68CX-36" value="PAT_NUM" style="text;strokeColor=#6c8ebf;fillColor=#FFE6CC;spacingLeft=4;spacingRight=4;overflow=hidden;rotatable=0;points=[[0,0.5],[1,0.5]];portConstraint=eastwest;fontSize=12;whiteSpace=wrap;html=1;" vertex="1" parent="hZAVBjUfhai6lHua68CX-31">
          <mxGeometry y="146" width="160" height="30" as="geometry" />
        </mxCell>
        <mxCell id="hZAVBjUfhai6lHua68CX-39" value="ROOM" style="swimlane;fontStyle=0;childLayout=stackLayout;horizontal=1;startSize=26;horizontalStack=0;resizeParent=1;resizeParentMax=0;resizeLast=0;collapsible=1;marginBottom=0;align=center;fontSize=14;fillStyle=solid;fillColor=#009900;gradientColor=light-dark(#99FF99,#EDEDED);swimlaneFillColor=#FF99FF;rounded=0;swimlaneLine=1;glass=0;" vertex="1" parent="1">
          <mxGeometry x="280" y="790" width="160" height="116" as="geometry" />
        </mxCell>
        <mxCell id="hZAVBjUfhai6lHua68CX-40" value="ROOM_ID(PK)" style="text;strokeColor=#6c8ebf;fillColor=#CCFFCC;spacingLeft=4;spacingRight=4;overflow=hidden;rotatable=0;points=[[0,0.5],[1,0.5]];portConstraint=eastwest;fontSize=12;whiteSpace=wrap;html=1;" vertex="1" parent="hZAVBjUfhai6lHua68CX-39">
          <mxGeometry y="26" width="160" height="30" as="geometry" />
        </mxCell>
        <mxCell id="hZAVBjUfhai6lHua68CX-41" value="ROOM_TYP" style="text;strokeColor=#6c8ebf;fillColor=#CCFFCC;spacingLeft=4;spacingRight=4;overflow=hidden;rotatable=0;points=[[0,0.5],[1,0.5]];portConstraint=eastwest;fontSize=12;whiteSpace=wrap;html=1;" vertex="1" parent="hZAVBjUfhai6lHua68CX-39">
          <mxGeometry y="56" width="160" height="30" as="geometry" />
        </mxCell>
        <mxCell id="hZAVBjUfhai6lHua68CX-42" value="ROOM_AVAILABLE" style="text;strokeColor=#6c8ebf;fillColor=#CCFFCC;spacingLeft=4;spacingRight=4;overflow=hidden;rotatable=0;points=[[0,0.5],[1,0.5]];portConstraint=eastwest;fontSize=12;whiteSpace=wrap;html=1;" vertex="1" parent="hZAVBjUfhai6lHua68CX-39">
          <mxGeometry y="86" width="160" height="30" as="geometry" />
        </mxCell>
        <mxCell id="hZAVBjUfhai6lHua68CX-45" value="BILL" style="swimlane;fontStyle=0;childLayout=stackLayout;horizontal=1;startSize=26;horizontalStack=0;resizeParent=1;resizeParentMax=0;resizeLast=0;collapsible=1;marginBottom=0;align=center;fontSize=14;fillStyle=solid;fillColor=#6600CC;gradientColor=light-dark(#CC99FF,#EDEDED);swimlaneFillColor=#FF99FF;rounded=0;swimlaneLine=1;glass=0;" vertex="1" parent="1">
          <mxGeometry x="510" y="580" width="160" height="146" as="geometry" />
        </mxCell>
        <mxCell id="hZAVBjUfhai6lHua68CX-46" value="BILL_ID(PK)" style="text;strokeColor=#6c8ebf;fillColor=#E5CCFF;spacingLeft=4;spacingRight=4;overflow=hidden;rotatable=0;points=[[0,0.5],[1,0.5]];portConstraint=eastwest;fontSize=12;whiteSpace=wrap;html=1;" vertex="1" parent="hZAVBjUfhai6lHua68CX-45">
          <mxGeometry y="26" width="160" height="30" as="geometry" />
        </mxCell>
        <mxCell id="hZAVBjUfhai6lHua68CX-47" value="PAT_ID(FK)" style="text;strokeColor=#6c8ebf;fillColor=#E5CCFF;spacingLeft=4;spacingRight=4;overflow=hidden;rotatable=0;points=[[0,0.5],[1,0.5]];portConstraint=eastwest;fontSize=12;whiteSpace=wrap;html=1;" vertex="1" parent="hZAVBjUfhai6lHua68CX-45">
          <mxGeometry y="56" width="160" height="30" as="geometry" />
        </mxCell>
        <mxCell id="hZAVBjUfhai6lHua68CX-48" value="BILL_TOTAL" style="text;strokeColor=#6c8ebf;fillColor=#E5CCFF;spacingLeft=4;spacingRight=4;overflow=hidden;rotatable=0;points=[[0,0.5],[1,0.5]];portConstraint=eastwest;fontSize=12;whiteSpace=wrap;html=1;" vertex="1" parent="hZAVBjUfhai6lHua68CX-45">
          <mxGeometry y="86" width="160" height="30" as="geometry" />
        </mxCell>
        <mxCell id="hZAVBjUfhai6lHua68CX-49" value="BILL_PAYMENT" style="text;strokeColor=#6c8ebf;fillColor=#E5CCFF;spacingLeft=4;spacingRight=4;overflow=hidden;rotatable=0;points=[[0,0.5],[1,0.5]];portConstraint=eastwest;fontSize=12;whiteSpace=wrap;html=1;" vertex="1" parent="hZAVBjUfhai6lHua68CX-45">
          <mxGeometry y="116" width="160" height="30" as="geometry" />
        </mxCell>
        <mxCell id="hZAVBjUfhai6lHua68CX-57" value="" style="edgeStyle=orthogonalEdgeStyle;fontSize=12;html=1;endArrow=ERone;endFill=1;rounded=0;entryX=0;entryY=0.5;entryDx=0;entryDy=0;" edge="1" parent="1" target="hZAVBjUfhai6lHua68CX-54">
          <mxGeometry width="100" height="100" relative="1" as="geometry">
            <mxPoint x="580.4040897253788" y="250" as="sourcePoint" />
            <mxPoint x="70" y="50" as="targetPoint" />
            <Array as="points">
              <mxPoint x="520" y="250" />
              <mxPoint x="70" y="250" />
              <mxPoint x="70" y="51" />
            </Array>
          </mxGeometry>
        </mxCell>
        <mxCell id="hZAVBjUfhai6lHua68CX-58" value="" style="edgeStyle=orthogonalEdgeStyle;fontSize=12;html=1;endArrow=ERmany;rounded=0;exitX=0;exitY=0.5;exitDx=0;exitDy=0;" edge="1" parent="1">
          <mxGeometry width="100" height="100" relative="1" as="geometry">
            <mxPoint x="80" y="40" as="sourcePoint" />
            <mxPoint x="540" y="311" as="targetPoint" />
            <Array as="points">
              <mxPoint x="80" y="50" />
              <mxPoint x="70" y="50" />
              <mxPoint x="70" y="250" />
              <mxPoint x="580" y="250" />
              <mxPoint x="580" y="311" />
            </Array>
          </mxGeometry>
        </mxCell>
        <mxCell id="hZAVBjUfhai6lHua68CX-60" value="" style="edgeStyle=elbowEdgeStyle;fontSize=12;html=1;endArrow=ERmany;rounded=0;entryX=0;entryY=0.5;entryDx=0;entryDy=0;exitX=1;exitY=0.25;exitDx=0;exitDy=0;" edge="1" parent="1">
          <mxGeometry width="100" height="100" relative="1" as="geometry">
            <mxPoint x="240" y="543" as="sourcePoint" />
            <mxPoint x="380" y="300" as="targetPoint" />
          </mxGeometry>
        </mxCell>
        <mxCell id="hZAVBjUfhai6lHua68CX-61" value="" style="edgeStyle=elbowEdgeStyle;fontSize=12;html=1;endArrow=ERone;endFill=1;rounded=0;entryX=1;entryY=0.5;entryDx=0;entryDy=0;" edge="1" parent="1">
          <mxGeometry width="100" height="100" relative="1" as="geometry">
            <mxPoint x="370" y="300" as="sourcePoint" />
            <mxPoint x="240" y="543" as="targetPoint" />
            <Array as="points">
              <mxPoint x="310" y="432" />
            </Array>
          </mxGeometry>
        </mxCell>
        <mxCell id="hZAVBjUfhai6lHua68CX-62" value="" style="edgeStyle=elbowEdgeStyle;fontSize=12;html=1;endArrow=ERone;endFill=1;rounded=0;entryX=1.003;entryY=0.841;entryDx=0;entryDy=0;entryPerimeter=0;exitX=0;exitY=0.5;exitDx=0;exitDy=0;" edge="1" parent="1" source="hZAVBjUfhai6lHua68CX-46">
          <mxGeometry width="100" height="100" relative="1" as="geometry">
            <mxPoint x="510" y="639.77" as="sourcePoint" />
            <mxPoint x="240.48000000000002" y="580" as="targetPoint" />
          </mxGeometry>
        </mxCell>
        <mxCell id="hZAVBjUfhai6lHua68CX-63" value="" style="edgeStyle=elbowEdgeStyle;fontSize=12;html=1;endArrow=ERmany;rounded=0;entryX=0;entryY=0.5;entryDx=0;entryDy=0;" edge="1" parent="1" target="hZAVBjUfhai6lHua68CX-46">
          <mxGeometry width="100" height="100" relative="1" as="geometry">
            <mxPoint x="240" y="580" as="sourcePoint" />
            <mxPoint x="250" y="430" as="targetPoint" />
          </mxGeometry>
        </mxCell>
        <mxCell id="hZAVBjUfhai6lHua68CX-65" value="" style="edgeStyle=orthogonalEdgeStyle;fontSize=12;html=1;endArrow=ERmany;startArrow=ERmany;rounded=0;entryX=0;entryY=0.5;entryDx=0;entryDy=0;exitX=0;exitY=0.5;exitDx=0;exitDy=0;" edge="1" parent="1" source="hZAVBjUfhai6lHua68CX-40" target="hZAVBjUfhai6lHua68CX-32">
          <mxGeometry width="100" height="100" relative="1" as="geometry">
            <mxPoint x="150" y="710" as="sourcePoint" />
            <mxPoint x="250" y="610" as="targetPoint" />
            <Array as="points">
              <mxPoint x="50" y="831" />
              <mxPoint x="50" y="551" />
            </Array>
          </mxGeometry>
        </mxCell>
        <mxCell id="hZAVBjUfhai6lHua68CX-66" value="( 1:M )" style="shape=rhombus;perimeter=rhombusPerimeter;whiteSpace=wrap;html=1;align=center;fillColor=#FFCCFF;gradientColor=#CCE5FF;" vertex="1" parent="1">
          <mxGeometry x="340" y="190" width="60" height="40" as="geometry" />
        </mxCell>
        <mxCell id="hZAVBjUfhai6lHua68CX-67" value="( 1:M )" style="shape=rhombus;perimeter=rhombusPerimeter;whiteSpace=wrap;html=1;align=center;fillColor=#CCFFFF;strokeColor=#d6b656;gradientColor=#FFE6CC;" vertex="1" parent="1">
          <mxGeometry x="240" y="390" width="60" height="40" as="geometry" />
        </mxCell>
        <mxCell id="hZAVBjUfhai6lHua68CX-68" value="( 1:M )" style="shape=rhombus;perimeter=rhombusPerimeter;whiteSpace=wrap;html=1;align=center;fillColor=#FFE6CC;strokeColor=#d6b656;gradientColor=#E5CCFF;" vertex="1" parent="1">
          <mxGeometry x="380" y="570" width="60" height="40" as="geometry" />
        </mxCell>
        <mxCell id="hZAVBjUfhai6lHua68CX-69" value="( M:N )" style="shape=rhombus;perimeter=rhombusPerimeter;whiteSpace=wrap;html=1;align=center;fillColor=#FFE6CC;strokeColor=#d6b656;gradientColor=#CCFFCC;" vertex="1" parent="1">
          <mxGeometry x="80" y="780" width="60" height="40" as="geometry" />
        </mxCell>
        <mxCell id="hZAVBjUfhai6lHua68CX-70" value="&lt;ul&gt;&lt;li&gt;&lt;font style=&quot;font-size: 8px;&quot; face=&quot;Times New Roman&quot;&gt;PATIENT &amp;amp; APPOINNTMENT&amp;nbsp;&amp;nbsp;→ ( 1:M )&lt;/font&gt;&lt;br&gt;&lt;/li&gt;&lt;li&gt;&lt;font style=&quot;font-size: 8px;&quot; face=&quot;Times New Roman&quot;&gt;DOCTOR &amp;amp; APPOINTMENT&amp;nbsp;&lt;/font&gt;&lt;font face=&quot;Times New Roman&quot;&gt;&lt;span style=&quot;font-size: 8px;&quot;&gt;→ ( 1:M )&lt;/span&gt;&lt;/font&gt;&lt;/li&gt;&lt;li&gt;&lt;font face=&quot;Times New Roman&quot;&gt;&lt;span style=&quot;font-size: 8px;&quot;&gt;PATIENT &amp;amp; ROOM&amp;nbsp;→ ( M:N )&lt;/span&gt;&lt;/font&gt;&lt;/li&gt;&lt;li&gt;&lt;font face=&quot;Times New Roman&quot;&gt;&lt;span style=&quot;font-size: 8px;&quot;&gt;PATIENT &amp;amp; BILL&amp;nbsp;→ ( 1:M )&lt;/span&gt;&lt;/font&gt;&lt;/li&gt;&lt;/ul&gt;" style="shape=note;size=20;whiteSpace=wrap;html=1;align=left;" vertex="1" parent="1">
          <mxGeometry x="550" y="80" width="190" height="100" as="geometry" />
        </mxCell>
      </root>
    </mxGraphModel>
  </diagram>
</mxfile>
